<svg width="58" height="20" viewBox="0 0 58 20" fill="none" xmlns="http://www.w3.org/2000/svg">
<path d="M0.5 10C0.5 4.47715 4.97715 0 10.5 0H47.5C53.0228 0 57.5 4.47715 57.5 10C57.5 15.5228 53.0228 20 47.5 20H10.5C4.97715 20 0.5 15.5228 0.5 10Z" fill="#D1FAE5"/>
<path d="M12.614 14L13.4151 11.6903H16.8242L17.6211 14H19.0188L15.8782 5.27273H14.3569L11.2163 14H12.614ZM13.7987 10.5824L15.0856 6.85795H15.1538L16.4407 10.5824H13.7987ZM22.8285 14.1321C24.3754 14.1321 25.3768 13.2031 25.5174 11.929H24.2773C24.1154 12.6364 23.5657 13.054 22.837 13.054C21.7589 13.054 21.0643 12.1548 21.0643 10.7273C21.0643 9.32528 21.7717 8.44318 22.837 8.44318C23.6467 8.44318 24.141 8.95455 24.2773 9.56818H25.5174C25.381 8.24716 24.3029 7.36932 22.8157 7.36932C20.9705 7.36932 19.7773 8.75852 19.7773 10.7571C19.7773 12.7301 20.9279 14.1321 22.8285 14.1321ZM29.9354 7.45455H28.593V5.88636H27.3189V7.45455H26.3601V8.47727H27.3189V12.3423C27.3146 13.5312 28.2223 14.1065 29.228 14.0852C29.6328 14.081 29.9055 14.0043 30.0547 13.9489L29.8246 12.8963C29.7393 12.9134 29.5817 12.9517 29.3771 12.9517C28.9638 12.9517 28.593 12.8153 28.593 12.0781V8.47727H29.9354V7.45455ZM31.3448 14H32.619V7.45455H31.3448V14ZM31.9883 6.4446C32.4272 6.4446 32.7937 6.10369 32.7937 5.68608C32.7937 5.26847 32.4272 4.9233 31.9883 4.9233C31.5451 4.9233 31.1829 5.26847 31.1829 5.68608C31.1829 6.10369 31.5451 6.4446 31.9883 6.4446ZM39.9325 7.45455H38.5646L36.9112 12.4915H36.843L35.1854 7.45455H33.8175L36.1953 14H37.5589L39.9325 7.45455ZM43.7166 14.1321C45.1442 14.1321 46.1541 13.429 46.4439 12.3636L45.2379 12.1463C45.0078 12.7642 44.4538 13.0795 43.7294 13.0795C42.6385 13.0795 41.9055 12.3722 41.8714 11.1108H46.5249V10.6591C46.5249 8.29403 45.1101 7.36932 43.6271 7.36932C41.8033 7.36932 40.6016 8.75852 40.6016 10.7699C40.6016 12.8026 41.7862 14.1321 43.7166 14.1321ZM41.8757 10.1562C41.9268 9.22727 42.6001 8.42188 43.6357 8.42188C44.6243 8.42188 45.272 9.15483 45.2763 10.1562H41.8757Z" fill="#065F46"/>
</svg>
