<svg width="99" height="18" viewBox="0 0 99 18" fill="none" xmlns="http://www.w3.org/2000/svg">
<path d="M14.664 5.136L12.624 12.528L10.44 5.136H7.512L5.328 12.504L3.288 5.136H0L3.816 17.136H6.768L8.976 9.864L11.184 17.136H14.136L17.952 5.136H14.664ZM24.864 17.472C28.392 17.472 31.224 14.712 31.224 11.136C31.224 7.56 28.392 4.8 24.864 4.8C21.336 4.8 18.528 7.56 18.528 11.136C18.528 14.712 21.336 17.472 24.864 17.472ZM24.864 14.448C23.04 14.448 21.624 13.08 21.624 11.136C21.624 9.192 23.04 7.824 24.864 7.824C26.712 7.824 28.128 9.192 28.128 11.136C28.128 13.08 26.712 14.448 24.864 14.448ZM36.498 7.2V5.136H33.402V17.136H36.498V11.4C36.498 8.88 38.538 8.16 40.146 8.352V4.896C38.634 4.896 37.122 5.568 36.498 7.2ZM53.02 17.136L48.053 11.064L52.877 5.136H49.18L45.052 10.416V0.336H41.956V17.136H45.052V11.688L49.42 17.136H53.02ZM61.022 0C57.206 0 55.382 1.704 55.382 5.016V5.136H53.654V8.112H55.382V17.136H58.478V8.112H60.47V5.136H58.478V5.016C58.478 3.384 59.414 2.712 61.022 2.712C61.334 2.712 61.67 2.712 62.006 2.736V17.136H65.102V0.504C63.782 0.24 62.534 0 61.022 0ZM73.637 17.472C77.165 17.472 79.997 14.712 79.997 11.136C79.997 7.56 77.165 4.8 73.637 4.8C70.109 4.8 67.301 7.56 67.301 11.136C67.301 14.712 70.109 17.472 73.637 17.472ZM73.637 14.448C71.813 14.448 70.397 13.08 70.397 11.136C70.397 9.192 71.813 7.824 73.637 7.824C75.485 7.824 76.901 9.192 76.901 11.136C76.901 13.08 75.485 14.448 73.637 14.448ZM95.219 5.136L93.179 12.528L90.995 5.136H88.067L85.883 12.504L83.843 5.136H80.555L84.371 17.136H87.323L89.531 9.864L91.739 17.136H94.691L98.507 5.136H95.219Z" fill="white"/>
</svg>
