<svg width="49" height="20" viewBox="0 0 49 20" fill="none" xmlns="http://www.w3.org/2000/svg">
<path d="M0 10C0 4.47715 4.47715 0 10 0H39C44.5228 0 49 4.47715 49 10C49 15.5228 44.5228 20 39 20H10C4.47715 20 0 15.5228 0 10Z" fill="#FEE2E2"/>
<path d="M11.3436 14H14.6887C16.7172 14 17.6333 12.9901 17.6333 11.652C17.6333 10.3011 16.6873 9.53835 15.8223 9.49148V9.40625C16.6234 9.2017 17.2924 8.65625 17.2924 7.56534C17.2924 6.27415 16.3976 5.27273 14.5396 5.27273H11.3436V14ZM12.6603 12.8707V10.0753H14.6078C15.6646 10.0753 16.3251 10.7571 16.3251 11.5881C16.3251 12.321 15.8265 12.8707 14.5609 12.8707H12.6603ZM12.6603 9.0483V6.39347H14.4586C15.5027 6.39347 16.0012 6.94318 16.0012 7.66761C16.0012 8.51136 15.3109 9.0483 14.4245 9.0483H12.6603ZM23.2392 11.2855C23.2434 12.3977 22.4167 12.9261 21.7008 12.9261C20.9125 12.9261 20.367 12.3551 20.367 11.4645V7.45455H19.0929V11.6179C19.0929 13.2415 19.9835 14.0852 21.2406 14.0852C22.225 14.0852 22.894 13.5653 23.1966 12.8665H23.2647V14H24.5176V7.45455H23.2392V11.2855ZM31.1344 9.05256C30.8702 8.03409 30.0733 7.36932 28.6586 7.36932C27.1799 7.36932 26.1316 8.14915 26.1316 9.30824C26.1316 10.2372 26.6941 10.8551 27.9213 11.1278L29.0293 11.3707C29.66 11.5114 29.954 11.7926 29.954 12.2017C29.954 12.7088 29.4128 13.1051 28.5776 13.1051C27.8148 13.1051 27.3248 12.777 27.1713 12.1335L25.9398 12.321C26.1529 13.4801 27.1159 14.1321 28.5861 14.1321C30.1671 14.1321 31.2623 13.2926 31.2623 12.108C31.2623 11.1832 30.6742 10.6122 29.4725 10.3352L28.4327 10.0966C27.7125 9.92614 27.4015 9.68324 27.4057 9.24006C27.4015 8.73722 27.9469 8.37926 28.6713 8.37926C29.464 8.37926 29.8304 8.81818 29.9796 9.2571L31.1344 9.05256ZM33.4686 16.4545C34.5211 16.4545 35.1859 15.9048 35.5652 14.8736L38.2711 7.46733L36.8947 7.45455L35.237 12.5341H35.1689L33.5112 7.45455H32.1475L34.5424 14.0852L34.3848 14.5199C34.0609 15.3892 33.6049 15.4616 32.9061 15.2699L32.5993 16.3139C32.7527 16.3821 33.085 16.4545 33.4686 16.4545Z" fill="#991B1B"/>
</svg>
